<svg width="511" height="582" viewBox="0 0 511 582" fill="none" xmlns="http://www.w3.org/2000/svg">
<path d="M402.933 269.275C330.726 303.581 274.185 325.245 206.873 345.287C103.606 376.049 44.9348 420.095 42.7048 494.797C46.0573 505.537 52.7508 514.927 61.8106 521.598C70.8704 528.269 81.8233 531.874 93.0743 531.888H328.593C406.789 531.888 470.41 468.266 470.41 390.07C470.41 340.598 444.113 294.799 402.933 269.275ZM316.449 468.463H199.271C193.605 468.451 188.09 466.632 183.528 463.27C178.966 459.909 175.594 455.18 173.904 449.772V406.303C224.758 379.914 296.37 373.618 353.956 336.06C374.717 348.932 387.978 372.024 387.978 396.962C387.955 436.383 355.875 468.463 316.449 468.463Z" fill="#41FFF2"/>
<path style="mix-blend-mode:multiply" d="M65.0767 484.943C73.319 521.058 54.6227 513.525 42.7584 493.959C42.7584 494.239 42.7218 494.513 42.7126 494.797C46.0651 505.537 52.7586 514.926 61.8184 521.598C70.8782 528.269 81.8311 531.874 93.0821 531.887H97.5604C100.738 528.485 104.942 524.025 110.18 518.15C138.721 486.17 152.399 469.287 173.888 449.79V406.321C142.646 411.39 52.0402 427.852 65.0767 484.943Z" fill="url(#paint0_linear_419_65)"/>
<path style="mix-blend-mode:multiply" d="M456.29 451.708C466.089 416.99 466.593 375.902 463.159 345.63C453.172 315.718 433.614 289.927 407.505 272.242C398.713 271.674 391.245 274.852 387.627 283.003C376.848 307.272 369.311 318.531 353.935 336.06C374.696 348.932 387.957 372.024 387.957 396.961C387.957 436.387 355.876 468.467 316.451 468.467H199.273C193.606 468.455 188.09 466.635 183.528 463.272C178.966 459.91 175.595 455.181 173.905 449.771C152.416 469.269 138.738 486.152 110.197 518.132C104.959 524.002 100.755 528.462 97.5771 531.869H328.594C384.706 531.864 433.308 499.106 456.29 451.708Z" fill="url(#paint1_linear_419_65)"/>
<path style="mix-blend-mode:multiply" d="M173.904 406.303C224.759 379.914 296.37 373.618 353.956 336.06C369.31 318.532 376.851 307.286 387.649 283.003C391.266 274.852 398.735 271.674 407.522 272.242C406.02 271.23 404.504 270.232 402.943 269.275C330.727 303.581 274.185 325.245 206.873 345.287C103.996 375.93 45.3977 419.77 42.751 493.959C54.6153 513.526 73.3207 521.058 65.0692 484.943C52.0464 427.852 142.652 411.39 173.904 406.303Z" fill="url(#paint2_linear_419_65)"/>
<path d="M263.845 42.9608H96.3991C82.2282 42.9741 68.6414 48.6085 58.6198 58.6275C48.5981 68.6465 42.9603 82.2319 42.9434 96.4028V386.1C44.8605 384.69 46.8188 383.304 48.8183 381.943C89.1871 354.441 141.461 338.868 192.019 323.789C251.917 305.931 313.853 287.495 351.616 250.547C373.596 229.026 386.193 197.97 386.193 165.294C386.206 97.8498 331.313 42.9608 263.845 42.9608ZM263.754 262.549C235.602 273.996 211.36 278.772 174.701 293.723V131.524C174.71 123.359 177.958 115.531 183.732 109.757C189.506 103.983 197.334 100.735 205.499 100.725H273.663C312.539 100.725 344.18 132.357 344.18 171.243C344.171 217.015 321.532 239.049 263.754 262.549Z" fill="#41FFF2"/>
<path style="mix-blend-mode:multiply" d="M205.499 100.725H273.663C274.148 100.725 274.634 100.753 275.119 100.762V43.4966C271.405 43.1577 267.646 42.9608 263.845 42.9608H96.3991C82.2282 42.9741 68.6414 48.6085 58.6198 58.6275C48.5981 68.6465 42.9603 82.2319 42.9434 96.4028V368.398C47.3347 375.015 53.7087 375.221 62.9446 366.108C97.3561 332.104 128.21 311.979 174.673 293.759V131.524C174.683 123.354 177.935 115.522 183.714 109.747C189.494 103.973 197.329 100.728 205.499 100.725Z" fill="url(#paint3_linear_419_65)"/>
<g style="mix-blend-mode:multiply">
<path d="M269.543 43.1027C271.375 43.1942 273.207 43.3255 275.038 43.4965C273.22 43.327 271.393 43.2126 269.543 43.1027Z" fill="url(#paint4_linear_419_65)"/>
<path d="M275.098 43.4961V100.762C274.613 100.762 274.127 100.725 273.642 100.725C312.518 100.725 344.159 132.357 344.159 171.242C344.159 217.033 321.52 239.053 263.742 262.571C235.59 274.019 211.349 278.795 174.689 293.745C128.212 311.979 97.358 332.104 62.9602 366.094C53.7243 375.22 47.3503 375.014 42.959 368.384V386.077C44.8761 384.667 46.8344 383.281 48.8339 381.919C89.2027 354.417 141.477 338.844 192.034 323.765C251.933 305.907 313.869 287.472 351.632 250.524C373.611 229.002 386.208 197.947 386.208 165.271C386.204 101.65 337.318 49.2107 275.098 43.4961Z" fill="url(#paint5_linear_419_65)"/>
</g>
<path d="M321.059 581.085H110.172C49.4216 581.085 0 531.663 0 470.913V110.172C0 49.4216 49.4216 0 110.172 0H258.102C352.43 0 429.157 76.731 429.157 171.055C429.154 190.639 425.835 210.082 419.339 228.558C447.307 245.49 470.435 269.35 486.488 297.831C502.541 326.312 510.976 358.452 510.98 391.146C510.998 495.878 425.796 581.085 321.059 581.085ZM65.0911 484.925C68.0967 494.535 74.0901 502.936 82.1996 508.905C90.3091 514.874 100.111 518.1 110.181 518.114H321.059C391.078 518.114 448.045 461.146 448.045 391.128C448.045 346.853 424.495 305.839 387.602 282.985C385.062 285.87 382.415 288.657 379.662 291.346C335.172 334.884 272.865 353.442 212.605 371.392C120.159 398.949 49.8108 427.916 65.0819 484.943L65.0911 484.925ZM110.181 62.9343C97.6577 62.9465 85.6512 67.9276 76.7972 76.7841C67.9433 85.6406 62.9657 97.6486 62.9572 110.172V366.103C64.6515 364.858 66.3823 363.637 68.1499 362.44C103.811 338.135 149.996 324.366 194.66 311.086C247.575 295.325 302.299 279.033 335.657 246.384C355.073 227.377 366.222 199.921 366.222 171.055C366.222 111.44 317.708 62.9526 258.102 62.9526L110.181 62.9343ZM321.059 581.085H110.172C49.4216 581.085 0 531.663 0 470.913V110.172C0 49.4216 49.4216 0 110.172 0H258.102C352.43 0 429.157 76.731 429.157 171.055C429.154 190.639 425.835 210.082 419.339 228.558C447.307 245.49 470.435 269.35 486.488 297.831C502.541 326.312 510.976 358.452 510.98 391.146C510.998 495.878 425.796 581.085 321.059 581.085ZM65.0911 484.925C68.0967 494.535 74.0901 502.936 82.1996 508.905C90.3091 514.874 100.111 518.1 110.181 518.114H321.059C391.078 518.114 448.045 461.146 448.045 391.128C448.045 346.853 424.495 305.839 387.602 282.985C385.062 285.87 382.415 288.657 379.662 291.346C335.172 334.884 272.865 353.442 212.605 371.392C120.159 398.949 49.8108 427.916 65.0819 484.943L65.0911 484.925ZM110.181 62.9343C97.6577 62.9465 85.6512 67.9276 76.7972 76.7841C67.9433 85.6406 62.9657 97.6486 62.9572 110.172V366.103C64.6515 364.858 66.3823 363.637 68.1499 362.44C103.811 338.135 149.996 324.366 194.66 311.086C247.575 295.325 302.299 279.033 335.657 246.384C355.073 227.377 366.222 199.921 366.222 171.055C366.222 111.44 317.708 62.9526 258.102 62.9526L110.181 62.9343Z" fill="url(#paint6_radial_419_65)"/>
<path d="M476.809 282.408C461.625 260.64 442.047 242.295 419.338 228.559C410.528 248.537 403.403 260.612 387.605 283.003C424.475 305.857 448.048 346.872 448.048 391.147C448.048 461.165 391.08 518.133 321.062 518.133H219.998C219.71 539.123 219.568 560.122 220.113 581.085H321.058C425.794 581.085 510.996 495.878 510.996 391.147C511.075 352.244 499.135 314.267 476.809 282.408Z" fill="url(#paint7_linear_419_65)"/>
<path d="M62.9589 366.103V110.172C62.9722 97.6533 67.9507 85.6514 76.8021 76.7991C85.6535 67.9469 97.655 62.9672 110.173 62.9526H159.938C198.086 52.746 190.796 4.37756 161.051 0.100739C161.014 0.100739 161.028 0.0320533 161.014 0H110.187C49.4415 0 0.0153809 49.4216 0.0153809 110.172L0.0428557 473.354C0.0245396 406.303 64.6531 364.858 62.9589 366.103Z" fill="url(#paint8_linear_419_65)"/>
<defs>
<linearGradient id="paint0_linear_419_65" x1="133.968" y1="481.98" x2="78.0079" y2="421.716" gradientUnits="userSpaceOnUse">
<stop stop-color="white"/>
<stop offset="1" stop-color="#005872"/>
</linearGradient>
<linearGradient id="paint1_linear_419_65" x1="281.471" y1="462.524" x2="277.323" y2="246.773" gradientUnits="userSpaceOnUse">
<stop stop-color="white"/>
<stop offset="0.22" stop-color="#BCD3DA"/>
<stop offset="0.5" stop-color="#6C9FAE"/>
<stop offset="0.74" stop-color="#32798E"/>
<stop offset="0.91" stop-color="#0E617A"/>
<stop offset="1" stop-color="#005872"/>
</linearGradient>
<linearGradient id="paint2_linear_419_65" x1="183.758" y1="280.398" x2="227.827" y2="389.786" gradientUnits="userSpaceOnUse">
<stop stop-color="white"/>
<stop offset="1" stop-color="#005872"/>
</linearGradient>
<linearGradient id="paint3_linear_419_65" x1="159.036" y1="402.21" x2="159.036" y2="111.559" gradientUnits="userSpaceOnUse">
<stop stop-color="white"/>
<stop offset="1" stop-color="#005872"/>
</linearGradient>
<linearGradient id="paint4_linear_419_65" x1="386.135" y1="164.724" x2="307.404" y2="80.745" gradientUnits="userSpaceOnUse">
<stop stop-color="white"/>
<stop offset="0.01" stop-color="#FDFDFD"/>
<stop offset="0.25" stop-color="#CCCCCC"/>
<stop offset="0.48" stop-color="#A5A5A5"/>
<stop offset="0.68" stop-color="#898A8A"/>
<stop offset="0.86" stop-color="#787979"/>
<stop offset="1" stop-color="#727373"/>
</linearGradient>
<linearGradient id="paint5_linear_419_65" x1="251.443" y1="290.888" x2="172.747" y2="206.95" gradientUnits="userSpaceOnUse">
<stop stop-color="white"/>
<stop offset="0.12" stop-color="#CFE0E5"/>
<stop offset="0.3" stop-color="#91B7C2"/>
<stop offset="0.48" stop-color="#5D95A6"/>
<stop offset="0.64" stop-color="#357B8F"/>
<stop offset="0.78" stop-color="#18687F"/>
<stop offset="0.91" stop-color="#065C75"/>
<stop offset="1" stop-color="#005872"/>
</linearGradient>
<radialGradient id="paint6_radial_419_65" cx="0" cy="0" r="1" gradientUnits="userSpaceOnUse" gradientTransform="translate(255.501 289.409) scale(273.584 292.735)">
<stop stop-color="#F7FEFF"/>
<stop offset="0.06" stop-color="#E3FBFF"/>
<stop offset="0.19" stop-color="#AEF2FE"/>
<stop offset="0.37" stop-color="#5AE4FD"/>
<stop offset="0.54" stop-color="#06D6FC"/>
</radialGradient>
<linearGradient id="paint7_linear_419_65" x1="285.401" y1="618.78" x2="472.299" y2="295.06" gradientUnits="userSpaceOnUse">
<stop offset="0.35" stop-color="#06D6FC"/>
<stop offset="0.51" stop-color="#039EC0"/>
<stop offset="0.69" stop-color="#016786"/>
<stop offset="0.78" stop-color="#00526F"/>
</linearGradient>
<linearGradient id="paint8_linear_419_65" x1="-102.161" y1="371.163" x2="218.871" y2="50.1314" gradientUnits="userSpaceOnUse">
<stop offset="0.53" stop-color="#00526F"/>
<stop offset="0.57" stop-color="#005B79"/>
<stop offset="0.64" stop-color="#027494"/>
<stop offset="0.74" stop-color="#039CBF"/>
<stop offset="0.81" stop-color="#05C2E7"/>
<stop offset="0.9" stop-color="#06D6FC"/>
</linearGradient>
</defs>
</svg>
