<svg width="2671" height="400" viewBox="0 0 2671 400" fill="none" xmlns="http://www.w3.org/2000/svg">
<path d="M1624.68 149.46L1579.83 310H1541.88L1511.75 195.69L1480.24 310L1442.52 310.23L1399.28 149.46H1433.78L1462.07 274.12L1494.73 149.46H1530.61L1561.43 273.43L1589.95 149.46H1624.68ZM1717.47 180.74C1727.13 180.74 1735.72 182.887 1743.23 187.18C1750.74 191.32 1756.57 197.53 1760.71 205.81C1765 213.937 1767.15 223.75 1767.15 235.25V310H1734.95V239.62C1734.95 229.5 1732.42 221.757 1727.36 216.39C1722.3 210.87 1715.4 208.11 1706.66 208.11C1697.77 208.11 1690.71 210.87 1685.5 216.39C1680.44 221.757 1677.91 229.5 1677.91 239.62V310H1645.71V139.8H1677.91V198.45C1682.05 192.93 1687.57 188.637 1694.47 185.57C1701.37 182.35 1709.04 180.74 1717.47 180.74ZM1814.1 167.4C1808.43 167.4 1803.67 165.637 1799.84 162.11C1796.16 158.43 1794.32 153.907 1794.32 148.54C1794.32 143.173 1796.16 138.727 1799.84 135.2C1803.67 131.52 1808.43 129.68 1814.1 129.68C1819.77 129.68 1824.45 131.52 1828.13 135.2C1831.96 138.727 1833.88 143.173 1833.88 148.54C1833.88 153.907 1831.96 158.43 1828.13 162.11C1824.45 165.637 1819.77 167.4 1814.1 167.4ZM1829.97 182.58V310H1797.77V182.58H1829.97ZM1899.27 209.03V270.67C1899.27 274.963 1900.27 278.107 1902.26 280.1C1904.41 281.94 1907.94 282.86 1912.84 282.86H1927.79V310H1907.55C1880.41 310 1866.84 296.813 1866.84 270.44V209.03H1851.66V182.58H1866.84V151.07H1899.27V182.58H1927.79V209.03H1899.27ZM2069.4 243.53C2069.4 248.13 2069.1 252.27 2068.48 255.95H1975.33C1976.1 265.15 1979.32 272.357 1984.99 277.57C1990.67 282.783 1997.64 285.39 2005.92 285.39C2017.88 285.39 2026.39 280.253 2031.45 269.98H2066.18C2062.5 282.247 2055.45 292.367 2045.02 300.34C2034.6 308.16 2021.79 312.07 2006.61 312.07C1994.35 312.07 1983.31 309.387 1973.49 304.02C1963.83 298.5 1956.24 290.757 1950.72 280.79C1945.36 270.823 1942.67 259.323 1942.67 246.29C1942.67 233.103 1945.36 221.527 1950.72 211.56C1956.09 201.593 1963.6 193.927 1973.26 188.56C1982.92 183.193 1994.04 180.51 2006.61 180.51C2018.73 180.51 2029.54 183.117 2039.04 188.33C2048.7 193.543 2056.14 200.98 2061.35 210.64C2066.72 220.147 2069.4 231.11 2069.4 243.53ZM2036.05 234.33C2035.9 226.05 2032.91 219.457 2027.08 214.55C2021.26 209.49 2014.13 206.96 2005.69 206.96C1997.72 206.96 1990.97 209.413 1985.45 214.32C1980.09 219.073 1976.79 225.743 1975.56 234.33H2036.05ZM2125.11 139.8V310H2092.91V139.8H2125.11ZM2148.64 245.83C2148.64 232.95 2151.17 221.527 2156.23 211.56C2161.44 201.593 2168.42 193.927 2177.16 188.56C2186.05 183.193 2195.94 180.51 2206.83 180.51C2216.34 180.51 2224.62 182.427 2231.67 186.26C2238.88 190.093 2244.63 194.923 2248.92 200.75V182.58H2281.35V310H2248.92V291.37C2244.78 297.35 2239.03 302.333 2231.67 306.32C2224.46 310.153 2216.11 312.07 2206.6 312.07C2195.87 312.07 2186.05 309.31 2177.16 303.79C2168.42 298.27 2161.44 290.527 2156.23 280.56C2151.17 270.44 2148.64 258.863 2148.64 245.83ZM2248.92 246.29C2248.92 238.47 2247.39 231.8 2244.32 226.28C2241.25 220.607 2237.11 216.313 2231.9 213.4C2226.69 210.333 2221.09 208.8 2215.11 208.8C2209.13 208.8 2203.61 210.257 2198.55 213.17C2193.49 216.083 2189.35 220.377 2186.13 226.05C2183.06 231.57 2181.53 238.163 2181.53 245.83C2181.53 253.497 2183.06 260.243 2186.13 266.07C2189.35 271.743 2193.49 276.113 2198.55 279.18C2203.76 282.247 2209.28 283.78 2215.11 283.78C2221.09 283.78 2226.69 282.323 2231.9 279.41C2237.11 276.343 2241.25 272.05 2244.32 266.53C2247.39 260.857 2248.92 254.11 2248.92 246.29ZM2345 201.21C2349.14 195.077 2354.81 190.093 2362.02 186.26C2369.38 182.427 2377.74 180.51 2387.09 180.51C2397.98 180.51 2407.79 183.193 2416.53 188.56C2425.42 193.927 2432.4 201.593 2437.46 211.56C2442.67 221.373 2445.28 232.797 2445.28 245.83C2445.28 258.863 2442.67 270.44 2437.46 280.56C2432.4 290.527 2425.42 298.27 2416.53 303.79C2407.79 309.31 2397.98 312.07 2387.09 312.07C2377.58 312.07 2369.23 310.23 2362.02 306.55C2354.97 302.717 2349.29 297.81 2345 291.83V310H2312.8V139.8H2345V201.21ZM2412.39 245.83C2412.39 238.163 2410.78 231.57 2407.56 226.05C2404.49 220.377 2400.35 216.083 2395.14 213.17C2390.08 210.257 2384.56 208.8 2378.58 208.8C2372.75 208.8 2367.23 210.333 2362.02 213.4C2356.96 216.313 2352.82 220.607 2349.6 226.28C2346.53 231.953 2345 238.623 2345 246.29C2345 253.957 2346.53 260.627 2349.6 266.3C2352.82 271.973 2356.96 276.343 2362.02 279.41C2367.23 282.323 2372.75 283.78 2378.58 283.78C2384.56 283.78 2390.08 282.247 2395.14 279.18C2400.35 276.113 2404.49 271.743 2407.56 266.07C2410.78 260.397 2412.39 253.65 2412.39 245.83ZM2587.13 243.53C2587.13 248.13 2586.82 252.27 2586.21 255.95H2493.06C2493.83 265.15 2497.05 272.357 2502.72 277.57C2508.39 282.783 2515.37 285.39 2523.65 285.39C2535.61 285.39 2544.12 280.253 2549.18 269.98H2583.91C2580.23 282.247 2573.18 292.367 2562.75 300.34C2552.32 308.16 2539.52 312.07 2524.34 312.07C2512.07 312.07 2501.03 309.387 2491.22 304.02C2481.56 298.5 2473.97 290.757 2468.45 280.79C2463.08 270.823 2460.4 259.323 2460.4 246.29C2460.4 233.103 2463.08 221.527 2468.45 211.56C2473.82 201.593 2481.33 193.927 2490.99 188.56C2500.65 183.193 2511.77 180.51 2524.34 180.51C2536.45 180.51 2547.26 183.117 2556.77 188.33C2566.43 193.543 2573.87 200.98 2579.08 210.64C2584.45 220.147 2587.13 231.11 2587.13 243.53ZM2553.78 234.33C2553.63 226.05 2550.64 219.457 2544.81 214.55C2538.98 209.49 2531.85 206.96 2523.42 206.96C2515.45 206.96 2508.7 209.413 2503.18 214.32C2497.81 219.073 2494.52 225.743 2493.29 234.33H2553.78ZM2642.83 139.8V310H2610.63V139.8H2642.83Z" fill="#06D6FC"/>
<path d="M746.519 180.324L730.028 212.541H805.76L821.641 180.324H746.519Z" fill="white"/>
<path d="M1100.34 141.696C1113.84 141.696 1124.78 130.758 1124.78 117.265C1124.78 103.772 1113.84 92.8334 1100.34 92.8334C1086.85 92.8334 1075.91 103.772 1075.91 117.265C1075.91 130.758 1086.85 141.696 1100.34 141.696Z" fill="white"/>
<path d="M1119.89 180.324H1080.8V309.856H1119.89V180.324Z" fill="white"/>
<path d="M1170.99 180.324L1151.11 214.305L1214.35 214.155L1150.43 309.856H1262.4L1288.05 273.207L1219.24 273.107L1283.16 180.324H1170.99Z" fill="white"/>
<path d="M677.708 191.773C677.708 191.773 705.397 181.189 701.324 140.472C697.252 99.7545 649.209 90 649.209 90H523V309.876H651.667C651.667 309.876 712.673 310.55 716.811 252.873C721.138 192.317 677.708 191.773 677.708 191.773ZM565.846 131.896H639.274C639.274 131.896 659.503 133.66 659.493 156.123C659.493 175.872 638.73 180.349 638.73 180.349H565.846V131.896ZM649.978 267.99H565.846V217.373H650.608C650.608 217.373 673.955 219.217 673.95 242.669C673.945 263.292 649.978 267.965 649.978 267.965V267.99Z" fill="white"/>
<path d="M1011.01 191.773C1011.01 191.773 1038.7 181.189 1034.63 140.472C1030.55 99.7545 982.511 90 982.511 90H856.312V309.876H984.974C984.974 309.876 1045.98 310.55 1050.12 252.873C1054.45 192.317 1011.01 191.773 1011.01 191.773ZM899.148 131.896H972.576C972.576 131.896 992.805 133.66 992.8 156.123C992.8 175.872 972.032 180.349 972.032 180.349H899.148V131.896ZM983.28 267.99H899.148V217.373H983.91C983.91 217.373 1007.26 219.217 1007.25 242.669C1007.23 263.292 983.28 267.965 983.28 267.965V267.99Z" fill="white"/>
<path d="M276.732 184.936C227.141 208.497 188.308 223.376 142.079 237.141C71.1559 258.268 30.8609 288.518 29.3293 339.823C31.6318 347.199 36.2289 353.648 42.451 358.23C48.6732 362.811 56.1956 365.287 63.9227 365.297H225.675C279.38 365.297 323.074 321.602 323.074 267.897C323.074 233.92 305.013 202.466 276.732 184.936ZM217.335 321.737H136.858C132.966 321.729 129.179 320.479 126.045 318.171C122.912 315.862 120.597 312.614 119.436 308.9V279.046C154.362 260.922 203.545 256.598 243.094 230.804C257.353 239.644 266.461 255.504 266.461 272.63C266.445 299.704 244.412 321.737 217.335 321.737Z" fill="#41FFF2"/>
<path style="mix-blend-mode:multiply" d="M44.6942 333.055C50.3549 357.859 37.5145 352.686 29.3662 339.248C29.3662 339.44 29.341 339.628 29.3347 339.823C31.6372 347.199 36.2342 353.648 42.4564 358.23C48.6786 362.811 56.201 365.287 63.9281 365.296H67.0038C69.1863 362.96 72.0733 359.897 75.671 355.862C95.2729 333.898 104.667 322.303 119.425 308.912V279.058C97.968 282.54 35.7408 293.845 44.6942 333.055Z" fill="url(#paint0_linear_448_66)"/>
<path style="mix-blend-mode:multiply" d="M313.377 310.23C320.107 286.386 320.453 258.167 318.094 237.376C311.236 216.833 297.803 199.12 279.872 186.974C273.834 186.584 268.704 188.766 266.22 194.364C258.817 211.032 253.64 218.765 243.08 230.804C257.339 239.644 266.446 255.503 266.446 272.63C266.446 299.707 244.413 321.74 217.336 321.74H136.859C132.967 321.731 129.179 320.481 126.046 318.172C122.913 315.863 120.598 312.615 119.437 308.9C104.678 322.29 95.2845 333.886 75.6826 355.849C72.0849 359.881 69.1979 362.944 67.0154 365.284H225.676C264.213 365.281 297.593 342.782 313.377 310.23Z" fill="url(#paint1_linear_448_66)"/>
<path style="mix-blend-mode:multiply" d="M119.436 279.046C154.363 260.922 203.545 256.598 243.095 230.804C253.639 218.765 258.819 211.042 266.234 194.364C268.719 188.767 273.848 186.584 279.883 186.974C278.852 186.279 277.811 185.593 276.738 184.936C227.141 208.497 188.308 223.376 142.079 237.141C71.4235 258.186 31.1788 288.295 29.3611 339.248C37.5094 352.686 50.3561 357.859 44.6891 333.056C35.7451 293.846 97.9723 282.54 119.436 279.046Z" fill="url(#paint2_linear_448_66)"/>
<path d="M181.207 29.5052H66.2062C56.4737 29.5143 47.1424 33.384 40.2596 40.265C33.3768 47.146 29.5048 56.4763 29.4932 66.2087V265.171C30.8098 264.202 32.1548 263.251 33.528 262.315C61.253 243.427 97.1547 232.732 131.877 222.376C173.015 210.111 215.552 197.45 241.488 172.074C256.583 157.293 265.234 135.965 265.234 113.523C265.244 67.2025 227.543 29.5052 181.207 29.5052ZM181.144 180.317C161.81 188.179 145.161 191.459 119.983 201.727V90.3298C119.99 84.7219 122.22 79.3456 126.186 75.3802C130.151 71.4148 135.528 69.1841 141.135 69.1775H187.95C214.649 69.1775 236.38 90.9021 236.38 117.608C236.374 149.044 220.826 164.177 181.144 180.317Z" fill="#41FFF2"/>
<path style="mix-blend-mode:multiply" d="M141.135 69.1775H187.95C188.283 69.1775 188.616 69.1964 188.95 69.2027V29.8731C186.399 29.6404 183.817 29.5052 181.207 29.5052H66.2062C56.4737 29.5143 47.1424 33.384 40.2596 40.265C33.3768 47.146 29.5048 56.4763 29.4932 66.2088V253.013C32.5091 257.557 36.8867 257.699 43.2299 251.441C66.8634 228.087 88.0535 214.265 119.964 201.752V90.3298C119.971 84.7186 122.204 79.3395 126.174 75.3735C130.143 71.4076 135.524 69.1792 141.135 69.1775Z" fill="url(#paint3_linear_448_66)"/>
<g style="mix-blend-mode:multiply">
<path d="M185.121 29.6026C186.379 29.6655 187.636 29.7557 188.894 29.8731C187.646 29.7567 186.391 29.6781 185.121 29.6026Z" fill="url(#paint4_linear_448_66)"/>
<path d="M188.935 29.8728V69.2024C188.602 69.2024 188.269 69.1772 187.935 69.1772C214.635 69.1772 236.366 90.9018 236.366 117.608C236.366 149.056 220.818 164.18 181.136 180.332C161.802 188.194 145.153 191.474 119.975 201.742C88.0548 214.265 66.8648 228.087 43.2406 251.431C36.8975 257.699 32.5198 257.557 29.5039 253.003V265.155C30.8206 264.186 32.1655 263.234 33.5388 262.299C61.2638 243.411 97.1654 232.716 131.888 222.36C173.026 210.095 215.563 197.434 241.498 172.058C256.594 157.277 265.245 135.949 265.245 113.507C265.242 69.8125 231.668 33.7976 188.935 29.8728Z" fill="url(#paint5_linear_448_66)"/>
</g>
<path d="M220.501 399.085H75.6651C33.9424 399.085 0 365.143 0 323.42V75.6651C0 33.9424 33.9424 0 75.6651 0H177.263C242.047 0 294.742 52.6983 294.742 117.479C294.74 130.93 292.46 144.283 287.999 156.972C307.207 168.601 323.091 184.987 334.116 204.548C345.141 224.109 350.935 246.183 350.937 268.636C350.95 340.566 292.433 399.085 220.501 399.085ZM44.7041 333.043C46.7683 339.643 50.8846 345.413 56.4541 349.512C62.0236 353.612 68.7558 355.828 75.6714 355.837H220.501C268.589 355.837 307.714 316.712 307.714 268.624C307.714 238.216 291.54 210.048 266.202 194.352C264.458 196.333 262.64 198.247 260.749 200.094C230.194 229.996 187.402 242.742 146.015 255.07C82.5241 273.995 34.2097 293.89 44.6978 333.056L44.7041 333.043ZM75.6714 43.2229C67.0706 43.2312 58.8246 46.6522 52.7438 52.7348C46.663 58.8173 43.2444 67.0643 43.2386 75.6651V251.437C44.4022 250.582 45.5909 249.743 46.8048 248.921C71.2969 232.228 103.016 222.772 133.691 213.652C170.033 202.827 207.617 191.638 230.527 169.215C243.861 156.161 251.519 137.304 251.519 117.479C251.519 76.5363 218.199 43.2354 177.263 43.2354L75.6714 43.2229ZM220.501 399.085H75.6651C33.9424 399.085 0 365.143 0 323.42V75.6651C0 33.9424 33.9424 0 75.6651 0H177.263C242.047 0 294.742 52.6983 294.742 117.479C294.74 130.93 292.46 144.283 287.999 156.972C307.207 168.601 323.091 184.987 334.116 204.548C345.141 224.109 350.935 246.183 350.937 268.636C350.95 340.566 292.433 399.085 220.501 399.085ZM44.7041 333.043C46.7683 339.643 50.8846 345.413 56.4541 349.512C62.0236 353.612 68.7558 355.828 75.6714 355.837H220.501C268.589 355.837 307.714 316.712 307.714 268.624C307.714 238.216 291.54 210.048 266.202 194.352C264.458 196.333 262.64 198.247 260.749 200.094C230.194 229.996 187.402 242.742 146.015 255.07C82.5241 273.995 34.2097 293.89 44.6978 333.056L44.7041 333.043ZM75.6714 43.2229C67.0706 43.2312 58.8246 46.6522 52.7438 52.7348C46.663 58.8173 43.2444 67.0643 43.2386 75.6651V251.437C44.4022 250.582 45.5909 249.743 46.8048 248.921C71.2969 232.228 103.016 222.772 133.691 213.652C170.033 202.827 207.617 191.638 230.527 169.215C243.861 156.161 251.519 137.304 251.519 117.479C251.519 76.5363 218.199 43.2354 177.263 43.2354L75.6714 43.2229Z" fill="url(#paint6_radial_448_66)"/>
<path d="M327.469 193.956C317.041 179.005 303.595 166.407 287.998 156.972C281.948 170.693 277.054 178.986 266.204 194.365C291.527 210.061 307.716 238.229 307.716 268.637C307.716 316.725 268.591 355.85 220.503 355.85H151.093C150.895 370.266 150.798 384.688 151.172 399.085H220.5C292.432 399.085 350.949 340.566 350.949 268.637C351.003 241.919 342.803 215.836 327.469 193.956Z" fill="url(#paint7_linear_448_66)"/>
<path d="M43.2399 251.437V75.6651C43.249 67.0676 46.6682 58.8248 52.7473 52.7451C58.8264 46.6654 67.0689 43.2454 75.6665 43.2354H109.845C136.044 36.2255 131.038 3.00648 110.609 0.0691871C110.584 0.0691871 110.593 0.022014 110.584 0H75.6759C33.9563 0 0.0107422 33.9424 0.0107422 75.6651L0.0296117 325.096C0.0170323 279.046 44.4035 250.582 43.2399 251.437Z" fill="url(#paint8_linear_448_66)"/>
<defs>
<linearGradient id="paint0_linear_448_66" x1="92.0085" y1="331.021" x2="53.5753" y2="289.631" gradientUnits="userSpaceOnUse">
<stop stop-color="white"/>
<stop offset="1" stop-color="#005872"/>
</linearGradient>
<linearGradient id="paint1_linear_448_66" x1="193.313" y1="317.658" x2="190.463" y2="169.482" gradientUnits="userSpaceOnUse">
<stop stop-color="white"/>
<stop offset="0.22" stop-color="#BCD3DA"/>
<stop offset="0.5" stop-color="#6C9FAE"/>
<stop offset="0.74" stop-color="#32798E"/>
<stop offset="0.91" stop-color="#0E617A"/>
<stop offset="1" stop-color="#005872"/>
</linearGradient>
<linearGradient id="paint2_linear_448_66" x1="126.204" y1="192.575" x2="156.47" y2="267.702" gradientUnits="userSpaceOnUse">
<stop stop-color="white"/>
<stop offset="1" stop-color="#005872"/>
</linearGradient>
<linearGradient id="paint3_linear_448_66" x1="109.225" y1="276.235" x2="109.225" y2="76.6182" gradientUnits="userSpaceOnUse">
<stop stop-color="white"/>
<stop offset="1" stop-color="#005872"/>
</linearGradient>
<linearGradient id="paint4_linear_448_66" x1="265.195" y1="113.132" x2="211.123" y2="55.4551" gradientUnits="userSpaceOnUse">
<stop stop-color="white"/>
<stop offset="0.01" stop-color="#FDFDFD"/>
<stop offset="0.25" stop-color="#CCCCCC"/>
<stop offset="0.48" stop-color="#A5A5A5"/>
<stop offset="0.68" stop-color="#898A8A"/>
<stop offset="0.86" stop-color="#787979"/>
<stop offset="1" stop-color="#727373"/>
</linearGradient>
<linearGradient id="paint5_linear_448_66" x1="172.689" y1="199.78" x2="118.642" y2="142.131" gradientUnits="userSpaceOnUse">
<stop stop-color="white"/>
<stop offset="0.12" stop-color="#CFE0E5"/>
<stop offset="0.3" stop-color="#91B7C2"/>
<stop offset="0.48" stop-color="#5D95A6"/>
<stop offset="0.64" stop-color="#357B8F"/>
<stop offset="0.78" stop-color="#18687F"/>
<stop offset="0.91" stop-color="#065C75"/>
<stop offset="1" stop-color="#005872"/>
</linearGradient>
<radialGradient id="paint6_radial_448_66" cx="0" cy="0" r="1" gradientUnits="userSpaceOnUse" gradientTransform="translate(175.476 198.764) scale(187.895 201.048)">
<stop stop-color="#F7FEFF"/>
<stop offset="0.06" stop-color="#E3FBFF"/>
<stop offset="0.19" stop-color="#AEF2FE"/>
<stop offset="0.37" stop-color="#5AE4FD"/>
<stop offset="0.54" stop-color="#06D6FC"/>
</radialGradient>
<linearGradient id="paint7_linear_448_66" x1="196.011" y1="424.974" x2="324.372" y2="202.645" gradientUnits="userSpaceOnUse">
<stop offset="0.35" stop-color="#06D6FC"/>
<stop offset="0.51" stop-color="#039EC0"/>
<stop offset="0.69" stop-color="#016786"/>
<stop offset="0.78" stop-color="#00526F"/>
</linearGradient>
<linearGradient id="paint8_linear_448_66" x1="-70.1635" y1="254.912" x2="150.319" y2="34.4299" gradientUnits="userSpaceOnUse">
<stop offset="0.53" stop-color="#00526F"/>
<stop offset="0.57" stop-color="#005B79"/>
<stop offset="0.64" stop-color="#027494"/>
<stop offset="0.74" stop-color="#039CBF"/>
<stop offset="0.81" stop-color="#05C2E7"/>
<stop offset="0.9" stop-color="#06D6FC"/>
</linearGradient>
</defs>
</svg>
